<?xml version="1.0" standalone="no"?>
<!DOCTYPE svg PUBLIC "-//W3C//DTD SVG 20010904//EN"
 "http://www.w3.org/TR/2001/REC-SVG-20010904/DTD/svg10.dtd">
<svg version="1.0" xmlns="http://www.w3.org/2000/svg"
 width="600.000000pt" height="320.000000pt" viewBox="0 0 600.000000 320.000000"
 preserveAspectRatio="xMidYMid meet">
<g transform="translate(0.000000,320.000000) scale(0.100000,-0.100000)"
fill="#000000" stroke="none">
<path d="M1174 2081 l-61 -245 34 -72 c26 -57 31 -78 24 -97 -7 -17 -5 -33 5
-52 11 -22 14 -82 14 -291 0 -230 2 -264 15 -264 14 0 15 32 13 260 -2 203 0
260 10 260 9 0 12 -59 12 -260 0 -253 1 -260 20 -260 19 0 20 7 20 264 0 233
2 268 18 295 14 25 15 34 5 50 -10 17 -7 31 21 94 l34 74 -59 239 c-33 132
-60 242 -62 245 -1 3 -29 -105 -63 -240z m62 -358 c-11 -28 -35 -10 -60 46
-14 32 -26 65 -26 72 0 8 19 93 42 189 l43 175 3 -235 c1 -129 0 -240 -2 -247z
m70 200 c16 -75 14 -124 -6 -148 -6 -8 -8 -20 -4 -27 5 -8 1 -8 -11 2 -17 14
-18 13 -12 -2 3 -10 3 -19 -1 -22 -5 -3 -7 255 -2 309 2 19 22 -41 36 -112z
m-38 -269 c2 -11 -4 -26 -12 -33 -31 -26 -71 14 -45 45 17 21 53 14 57 -12z"/>
<path d="M2084 1988 c-4 -7 -4 -10 1 -6 4 4 15 2 24 -5 14 -11 14 -10 2 6 -16
20 -18 21 -27 5z"/>
<path d="M4274 1968 l-19 -23 23 19 c12 11 22 21 22 23 0 8 -8 2 -26 -19z"/>
<path d="M5100 1981 c0 -6 4 -13 10 -16 6 -3 7 1 4 9 -7 18 -14 21 -14 7z"/>
<path d="M2829 1963 c-13 -16 -12 -17 2 -5 23 17 67 0 74 -30 3 -13 5 -72 3
-132 l-3 -110 -115 142 -114 142 -51 0 -50 -1 28 -20 27 -21 0 -153 c0 -148
-1 -154 -22 -169 -22 -15 -21 -16 25 -16 l47 0 -20 20 c-18 18 -20 33 -20 162
0 120 2 140 13 128 8 -8 70 -84 138 -168 l124 -154 3 179 c2 167 3 179 23 196
21 17 20 17 -24 17 -25 0 -52 2 -60 5 -7 3 -20 -2 -28 -12z m-88 -120 c13 -16
12 -17 -3 -4 -17 13 -22 21 -14 21 2 0 10 -8 17 -17z m44 -51 c-3 -3 -11 0
-18 7 -9 10 -8 11 6 5 10 -3 15 -9 12 -12z m23 -37 c-3 -3 -9 2 -12 12 -6 14
-5 15 5 6 7 -7 10 -15 7 -18z m85 -94 c-4 -6 -43 30 -43 40 0 5 10 -2 23 -14
13 -12 22 -24 20 -26z"/>
<path d="M1678 1954 c21 -15 22 -21 22 -180 0 -161 0 -165 -22 -174 -16 -6 25
-9 122 -9 l145 -1 11 45 c6 25 7 45 2 45 -4 0 -8 -5 -8 -10 0 -6 -11 -22 -25
-35 -21 -22 -33 -25 -95 -25 l-70 0 0 168 c0 165 0 169 23 180 18 9 8 11 -53
11 -70 1 -73 0 -52 -15z"/>
<path d="M2083 1957 c0 -8 6 -14 14 -14 9 0 10 4 2 14 -6 7 -12 13 -14 13 -1
0 -2 -6 -2 -13z"/>
<path d="M2168 1950 c-20 -11 -48 -35 -62 -53 -25 -32 -49 -114 -42 -139 2 -7
7 -25 10 -41 4 -15 23 -45 42 -67 77 -85 207 -87 290 -5 47 48 59 86 52 165
-6 60 -42 112 -98 140 -52 26 -142 26 -192 0z m160 -10 c88 -54 96 -241 14
-314 -13 -11 -42 -21 -70 -24 -43 -4 -53 -1 -84 26 -90 80 -73 281 27 322 35
15 79 11 113 -10z"/>
<path d="M3195 1956 c-16 -7 -47 -31 -67 -54 -81 -90 -54 -238 55 -293 53 -28
135 -30 200 -6 l47 19 0 54 c0 47 3 56 23 64 16 6 -1 9 -58 8 -48 0 -70 -3
-55 -7 22 -6 25 -13 28 -64 3 -54 1 -58 -23 -67 -39 -15 -93 -12 -125 7 -101
59 -97 286 5 329 73 30 151 5 179 -58 l14 -33 1 46 c1 45 0 46 -38 57 -51 16
-148 15 -186 -2z"/>
<path d="M3618 1954 c21 -15 22 -21 22 -180 0 -161 0 -165 -22 -174 -17 -6 -3
-9 52 -9 55 0 69 3 53 9 -23 9 -23 12 -23 178 0 165 0 169 23 180 18 9 8 11
-53 11 -70 1 -73 0 -52 -15z"/>
<path d="M3894 1949 l26 -20 0 -154 c0 -148 -1 -154 -22 -169 -22 -15 -21 -16
27 -16 41 0 46 2 32 13 -15 10 -18 34 -20 161 -3 147 -3 148 16 125 10 -13 71
-88 135 -166 l117 -142 5 180 c5 164 7 182 24 195 18 13 16 14 -27 14 l-47 0
20 -20 c18 -18 20 -33 20 -140 0 -66 -2 -120 -4 -120 -2 0 -55 63 -117 140
l-113 140 -49 0 -50 0 27 -21z m71 -27 c-3 -3 -11 0 -18 7 -9 10 -8 11 6 5 10
-3 15 -9 12 -12z m32 -37 c0 -8 -4 -12 -9 -9 -5 3 -6 10 -3 15 9 13 12 11 12
-6z m73 -81 c0 -2 -9 0 -20 6 -11 6 -20 13 -20 16 0 2 9 0 20 -6 11 -6 20 -13
20 -16z m33 -43 c19 -21 24 -32 16 -37 -8 -4 -9 -3 -5 4 4 7 3 12 -2 12 -5 0
-17 11 -26 25 -21 33 -17 32 17 -4z m87 -99 c0 -1 -9 2 -20 8 -11 6 -20 15
-20 20 0 6 9 2 20 -7 11 -10 20 -19 20 -21z"/>
<path d="M4398 1954 c21 -14 22 -22 22 -149 l0 -134 31 -35 c45 -52 138 -65
201 -28 47 28 58 66 58 205 0 119 1 127 22 141 21 15 20 16 -32 15 -48 0 -52
-2 -32 -12 23 -11 23 -13 20 -153 -3 -123 -6 -145 -22 -163 -26 -29 -78 -42
-121 -30 -55 16 -65 46 -65 202 0 129 1 134 23 145 18 9 8 11 -53 11 -70 1
-73 0 -52 -15z"/>
<path d="M4909 1942 c-26 -23 -32 -36 -32 -71 0 -51 22 -77 103 -120 68 -36
83 -52 83 -88 0 -54 -80 -83 -131 -47 -12 8 -31 32 -42 52 l-19 37 -1 -47 c0
-50 4 -53 91 -72 70 -15 149 40 149 104 0 46 -28 79 -99 115 -67 34 -91 58
-91 94 0 35 31 61 71 61 33 0 79 -35 79 -61 0 -10 5 -19 10 -19 6 0 10 15 10
33 0 41 -28 57 -100 57 -40 0 -56 -5 -81 -28z m42 -139 c13 -16 12 -17 -3 -4
-17 13 -22 21 -14 21 2 0 10 -8 17 -17z m39 -18 c11 -13 10 -14 -4 -9 -9 3
-16 10 -16 15 0 13 6 11 20 -6z"/>
<path d="M2006 1867 c3 -10 9 -15 12 -12 3 3 0 11 -7 18 -10 9 -11 8 -5 -6z"/>
<path d="M2685 1671 c-3 -5 -2 -12 3 -15 5 -3 9 1 9 9 0 17 -3 19 -12 6z"/>
<path d="M4806 1667 c3 -10 9 -15 12 -12 3 3 0 11 -7 18 -10 9 -11 8 -5 -6z"/>
<path d="M1133 1605 c0 -8 4 -12 9 -9 5 3 6 10 3 15 -9 13 -12 11 -12 -6z"/>
<path d="M2936 1562 c-3 -5 1 -9 9 -9 8 0 12 4 9 9 -3 4 -7 8 -9 8 -2 0 -6 -4
-9 -8z"/>
<path d="M2560 1436 c0 -2 8 -10 18 -17 15 -13 16 -12 3 4 -13 16 -21 21 -21
13z"/>
<path d="M2883 1423 c0 -9 4 -10 14 -2 7 6 13 12 13 14 0 1 -6 2 -13 2 -8 0
-14 -6 -14 -14z"/>
<path d="M2403 1415 c0 -8 4 -12 9 -9 5 3 6 10 3 15 -9 13 -12 11 -12 -6z"/>
<path d="M1702 1320 c23 -49 45 -90 50 -90 10 0 90 171 83 178 -9 9 -20 -10
-50 -80 -16 -37 -32 -65 -35 -63 -3 2 -19 35 -35 74 -17 39 -35 71 -42 71 -7
0 5 -37 29 -90z"/>
<path d="M1760 1400 c-9 -6 -10 -10 -3 -10 6 0 15 5 18 10 8 12 4 12 -15 0z"/>
<path d="M2000 1320 l0 -90 65 0 c37 0 65 4 65 10 0 6 -25 10 -55 10 -54 0
-55 0 -55 30 0 29 2 30 45 30 25 0 45 5 45 10 0 6 -20 10 -45 10 -43 0 -45 1
-45 30 0 30 1 30 55 30 30 0 55 5 55 10 0 6 -28 10 -65 10 l-65 0 0 -90z"/>
<path d="M2300 1320 c0 -107 18 -122 22 -19 l3 72 55 -71 c30 -39 60 -71 65
-72 6 0 10 36 10 90 0 64 -3 90 -12 90 -9 0 -11 -19 -8 -70 3 -38 2 -70 -2
-69 -5 0 -32 31 -61 70 -29 38 -57 69 -63 69 -5 0 -9 -40 -9 -90z"/>
<path d="M2620 1400 c0 -5 14 -10 30 -10 l30 0 0 -80 c0 -47 4 -80 10 -80 6 0
10 33 10 80 l0 80 29 0 c17 0 33 5 36 10 4 6 -22 10 -69 10 -44 0 -76 -4 -76
-10z"/>
<path d="M2927 1338 c3 -81 21 -108 73 -108 52 0 70 26 73 108 1 46 -2 72 -8
72 -7 0 -11 -24 -11 -63 1 -73 -13 -97 -54 -97 -42 0 -55 23 -53 96 2 47 -1
64 -11 64 -10 0 -12 -18 -9 -72z"/>
<path d="M3260 1320 c0 -53 4 -90 10 -90 6 0 10 14 10 30 0 28 3 30 34 30 28
0 38 -6 53 -30 9 -16 23 -30 30 -30 9 0 7 9 -8 29 -20 28 -21 31 -5 46 24 24
20 71 -6 89 -13 9 -43 16 -70 16 l-48 0 0 -90z m114 54 c19 -19 20 -25 4 -47
-8 -10 -31 -19 -55 -21 l-43 -4 0 44 0 44 39 0 c23 0 46 -7 55 -16z"/>
<path d="M3580 1320 l0 -90 65 0 c37 0 65 4 65 10 0 6 -25 10 -55 10 -54 0
-55 0 -55 30 0 29 2 30 45 30 25 0 45 5 45 10 0 6 -20 10 -45 10 -43 0 -45 1
-45 30 0 29 1 30 50 30 28 0 50 5 50 10 0 6 -27 10 -60 10 l-60 0 0 -90z"/>
<path d="M3887 1392 c-33 -36 -16 -67 41 -78 66 -13 69 -64 4 -64 -21 0 -43 5
-50 12 -9 9 -12 8 -12 -4 0 -32 86 -40 113 -10 33 36 16 67 -41 78 -38 8 -57
28 -48 50 5 13 16 16 51 12 44 -5 61 4 29 16 -30 12 -71 6 -87 -12z"/>
<path d="M2569 1373 c-13 -16 -12 -17 4 -4 16 13 21 21 13 21 -2 0 -10 -8 -17
-17z"/>
</g>
</svg>
